<svg width="30" height="27" viewBox="0 0 30 27" fill="none" xmlns="http://www.w3.org/2000/svg">
<path d="M15.0002 24.3333H17.6668V6.99998L26.1922 10.6533C26.4322 10.7562 26.6367 10.9273 26.7803 11.1454C26.9239 11.3634 27.0004 11.6189 27.0002 11.88V24.3333H29.6668V27H0.333496V24.3333H3.00016V6.53331C3.00013 6.27534 3.07494 6.02289 3.21552 5.80658C3.35609 5.59027 3.5564 5.41939 3.79216 5.31465L14.0628 0.749313C14.1644 0.704172 14.2757 0.68516 14.3866 0.69401C14.4974 0.702859 14.6042 0.739288 14.6974 0.79998C14.7906 0.860673 14.8671 0.943702 14.9199 1.04151C14.9728 1.13932 15.0004 1.24879 15.0002 1.35998V24.3333Z" fill="white"/>
</svg>
