<svg width="31" height="28" viewBox="0 0 31 28" fill="none" xmlns="http://www.w3.org/2000/svg">
<path d="M27.5002 24.6667H30.1668V27.3334H0.833496V24.6667H3.50016V2.00008C3.50016 1.64646 3.64064 1.30732 3.89069 1.05727C4.14074 0.807224 4.47987 0.666748 4.8335 0.666748H26.1668C26.5205 0.666748 26.8596 0.807224 27.1096 1.05727C27.3597 1.30732 27.5002 1.64646 27.5002 2.00008V24.6667ZM10.1668 12.6667V15.3334H14.1668V12.6667H10.1668ZM10.1668 7.33342V10.0001H14.1668V7.33342H10.1668ZM10.1668 18.0001V20.6667H14.1668V18.0001H10.1668ZM16.8335 18.0001V20.6667H20.8335V18.0001H16.8335ZM16.8335 12.6667V15.3334H20.8335V12.6667H16.8335ZM16.8335 7.33342V10.0001H20.8335V7.33342H16.8335Z" fill="white"/>
</svg>
