<svg width="63" height="14" viewBox="0 0 63 14" fill="none" xmlns="http://www.w3.org/2000/svg">
<path d="M9.84916 12.878C8.86583 13.626 7.48599 14 5.70966 14C3.93332 14 2.54555 13.6175 1.54637 12.8525C0.563035 12.0704 0.0475805 10.9399 0 9.46084H3.92539C4.00469 9.97085 4.17122 10.3534 4.42498 10.6084C4.67875 10.8464 5.09904 10.9654 5.68586 10.9654C6.70091 10.9654 7.20844 10.5999 7.20844 9.86885C7.20844 9.54584 7.03398 9.29933 6.68505 9.12932C6.35199 8.95932 5.75724 8.80631 4.90079 8.67031C3.20375 8.4323 1.99045 7.99878 1.26088 7.36976C0.531315 6.74074 0.166532 5.7462 0.166532 4.38616C0.166532 2.97511 0.674057 1.89557 1.68911 1.14754C2.70416 0.382513 3.97297 0 5.49554 0C8.90548 0 10.7373 1.43655 10.9911 4.30965H7.13707C6.97847 3.42562 6.44715 2.98361 5.54312 2.98361C5.09904 2.98361 4.75012 3.07711 4.49635 3.26412C4.25845 3.45112 4.1395 3.70613 4.1395 4.02914C4.1395 4.33515 4.29017 4.57316 4.59151 4.74317C4.90872 4.89617 5.45589 5.02368 6.23304 5.12568C8.0411 5.36369 9.34163 5.79721 10.1346 6.42623C10.9435 7.03825 11.3479 8.03279 11.3479 9.40983C11.3479 10.9569 10.8483 12.1129 9.84916 12.878Z" fill="white"/>
<path d="M18.2915 14C16.2931 14 14.6674 13.3965 13.4145 12.1894C12.1615 10.9824 11.535 9.31633 11.535 7.19126V6.98725C11.535 4.89617 12.1774 3.21311 13.462 1.93807C14.7467 0.646022 16.3486 0 18.2677 0C20.0916 0 21.5983 0.57802 22.7878 1.73406C23.9932 2.8901 24.5959 4.60716 24.5959 6.88524V8.08379H15.8411C15.9045 8.96782 16.1583 9.65634 16.6024 10.1494C17.0623 10.6254 17.6729 10.8634 18.4342 10.8634C19.6872 10.8634 20.4088 10.3364 20.5991 9.28233H24.5959C24.4056 10.7954 23.7712 11.9599 22.6927 12.776C21.63 13.592 20.163 14 18.2915 14ZM15.8887 5.5082H20.4564C20.3771 3.84214 19.6475 3.00911 18.2677 3.00911C17.6174 3.00911 17.0861 3.23011 16.6737 3.67213C16.2614 4.09715 15.9997 4.70917 15.8887 5.5082Z" fill="white"/>
<path d="M28.4608 13.694L23.8931 0.357013H28.437L31.0301 8.95082L33.5757 0.357013H37.6438L33.0999 13.694H28.4608Z" fill="white"/>
<path d="M43.4447 14C41.4463 14 39.8206 13.3965 38.5677 12.1894C37.3147 10.9824 36.6883 9.31633 36.6883 7.19126V6.98725C36.6883 4.89617 37.3306 3.21311 38.6153 1.93807C39.8999 0.646022 41.5018 0 43.4209 0C45.2448 0 46.7515 0.57802 47.941 1.73406C49.1464 2.8901 49.7491 4.60716 49.7491 6.88524V8.08379H40.9943C41.0577 8.96782 41.3115 9.65634 41.7556 10.1494C42.2155 10.6254 42.8261 10.8634 43.5874 10.8634C44.8404 10.8634 45.562 10.3364 45.7523 9.28233H49.7491C49.5588 10.7954 48.9244 11.9599 47.8459 12.776C46.7832 13.592 45.3162 14 43.4447 14ZM41.0419 5.5082H45.6096C45.5303 3.84214 44.8007 3.00911 43.4209 3.00911C42.7706 3.00911 42.2393 3.23011 41.8269 3.67213C41.4146 4.09715 41.1529 4.70917 41.0419 5.5082Z" fill="white"/>
<path d="M50.5815 13.694V0.357013H54.84V2.49909C55.2047 1.75106 55.7281 1.14754 56.4101 0.688523C57.108 0.229508 57.9485 0 58.9319 0C60.1848 0 61.1761 0.425015 61.9056 1.27504C62.6352 2.12508 63 3.37462 63 5.02368V13.694H58.7416V5.94171C58.7416 4.44566 58.1468 3.69763 56.9573 3.69763C56.307 3.69763 55.7916 3.91014 55.4109 4.33515C55.0303 4.76017 54.84 5.38919 54.84 6.22222V13.694H50.5815Z" fill="white"/>
</svg>
