<svg width="28" height="22" viewBox="0 0 28 22" fill="none" xmlns="http://www.w3.org/2000/svg">
<path d="M27.3327 9.66665V21.6666H24.666V17.6666H3.33268V21.6666H0.666016V0.333313H3.33268V13.6666H13.9993V4.33331H21.9993C23.4138 4.33331 24.7704 4.89522 25.7706 5.89541C26.7708 6.8956 27.3327 8.25216 27.3327 9.66665ZM24.666 13.6666V9.66665C24.666 8.9594 24.3851 8.28113 23.885 7.78103C23.3849 7.28093 22.7066 6.99998 21.9993 6.99998H16.666V13.6666H24.666ZM8.66602 9.66665C9.01964 9.66665 9.35878 9.52617 9.60882 9.27612C9.85887 9.02607 9.99935 8.68694 9.99935 8.33331C9.99935 7.97969 9.85887 7.64055 9.60882 7.3905C9.35878 7.14046 9.01964 6.99998 8.66602 6.99998C8.31239 6.99998 7.97325 7.14046 7.72321 7.3905C7.47316 7.64055 7.33268 7.97969 7.33268 8.33331C7.33268 8.68694 7.47316 9.02607 7.72321 9.27612C7.97325 9.52617 8.31239 9.66665 8.66602 9.66665ZM8.66602 12.3333C7.60515 12.3333 6.58773 11.9119 5.83759 11.1617C5.08744 10.4116 4.66602 9.39418 4.66602 8.33331C4.66602 7.27245 5.08744 6.25503 5.83759 5.50489C6.58773 4.75474 7.60515 4.33331 8.66602 4.33331C9.72688 4.33331 10.7443 4.75474 11.4944 5.50489C12.2446 6.25503 12.666 7.27245 12.666 8.33331C12.666 9.39418 12.2446 10.4116 11.4944 11.1617C10.7443 11.9119 9.72688 12.3333 8.66602 12.3333Z" fill="#2D2A26"/>
</svg>
