<svg width="20" height="17" viewBox="0 0 20 17" fill="none" xmlns="http://www.w3.org/2000/svg">
<path d="M2 13.9198L7.065 11.7498L13.065 14.7498L18 12.6328L19.303 12.0748C19.3791 12.0422 19.4621 12.0289 19.5445 12.0363C19.627 12.0437 19.7063 12.0714 19.7754 12.117C19.8445 12.1626 19.9012 12.2247 19.9404 12.2976C19.9796 12.3705 20.0001 12.452 20 12.5348V13.9528L13 16.9528L7 13.9528L0.697001 16.6538C0.620915 16.6864 0.53792 16.6996 0.455467 16.6922C0.373013 16.6849 0.29368 16.6571 0.224588 16.6115C0.155496 16.5659 0.0988067 16.5039 0.0596079 16.431C0.0204091 16.3581 -7.2559e-05 16.2765 1.09524e-06 16.1938L0 14.7498L2 13.9198Z" fill="#2D2A26"/>
<path d="M2 8.37245L7.065 6.20246L13.065 9.20246L18 7.08545L19.303 6.52746C19.3791 6.49484 19.4621 6.48163 19.5445 6.489C19.627 6.49637 19.7063 6.5241 19.7754 6.5697C19.8445 6.6153 19.9012 6.67734 19.9404 6.75025C19.9796 6.82317 20.0001 6.90467 20 6.98746V8.40546L13 11.4055L7 8.40546L0.697001 11.1065C0.620915 11.1391 0.53792 11.1523 0.455467 11.1449C0.373013 11.1375 0.29368 11.1098 0.224588 11.0642C0.155496 11.0186 0.0988067 10.9566 0.0596079 10.8837C0.0204091 10.8107 -7.2559e-05 10.7292 1.09524e-06 10.6465L0 9.20246L2 8.37245Z" fill="#2D2A26"/>
<path d="M2 2.67L7.065 0.5L13.065 3.5L18 1.383L19.303 0.824999C19.3791 0.792383 19.4621 0.779168 19.5445 0.786541C19.627 0.793915 19.7063 0.821645 19.7754 0.867244C19.8445 0.912843 19.9012 0.974883 19.9404 1.0478C19.9796 1.12071 20.0001 1.20222 20 1.285V2.703L13 5.703L7 2.703L0.697001 5.404C0.620915 5.43661 0.53792 5.44983 0.455467 5.44246C0.373013 5.43508 0.29368 5.40735 0.224588 5.36175C0.155496 5.31615 0.0988067 5.25412 0.0596079 5.1812C0.0204091 5.10829 -7.25534e-05 5.02678 1.10082e-06 4.944L0 3.5L2 2.67Z" fill="#2D2A26"/>
</svg>
