<svg width="16" height="21" viewBox="0 0 16 21" fill="none" xmlns="http://www.w3.org/2000/svg">
<path d="M5.9732 16H7.0002V11H9.0002V16H10.0272C10.1592 14.798 10.7722 13.806 11.7672 12.723C11.8802 12.601 12.5992 11.856 12.6842 11.75C13.3905 10.8676 13.8332 9.80372 13.9613 8.68077C14.0895 7.55783 13.8978 6.42154 13.4085 5.40274C12.9191 4.38394 12.1519 3.52408 11.1953 2.92218C10.2387 2.32027 9.13151 2.00081 8.00128 2.00056C6.87106 2.00032 5.76374 2.31932 4.80686 2.92081C3.84999 3.52231 3.08246 4.38184 2.59267 5.40043C2.10288 6.41902 1.91074 7.55523 2.0384 8.67823C2.16605 9.80123 2.60829 10.8653 3.3142 11.748C3.4002 11.855 4.1212 12.601 4.2322 12.722C5.2282 13.806 5.8412 14.798 5.9732 16ZM6.0002 18V19H10.0002V18H6.0002ZM1.7542 13C0.812395 11.8233 0.222152 10.4045 0.0514683 8.90697C-0.119215 7.40947 0.136604 5.89421 0.789458 4.53575C1.44231 3.17728 2.46564 2.03087 3.74156 1.22858C5.01748 0.426295 6.49409 0.000762023 8.00129 0.00100337C9.50848 0.00124471 10.985 0.427251 12.2606 1.22995C13.5363 2.03265 14.5592 3.17938 15.2117 4.53805C15.8641 5.89673 16.1194 7.41207 15.9482 8.90951C15.7771 10.407 15.1864 11.8256 14.2442 13.002C13.6242 13.774 12.0002 15 12.0002 16.5V19C12.0002 19.5304 11.7895 20.0391 11.4144 20.4142C11.0393 20.7893 10.5306 21 10.0002 21H6.0002C5.46977 21 4.96106 20.7893 4.58599 20.4142C4.21092 20.0391 4.0002 19.5304 4.0002 19V16.5C4.0002 15 2.3752 13.774 1.7542 13Z" fill="#2D2A26"/>
</svg>
