<svg width="28" height="25" viewBox="0 0 28 25" fill="none" xmlns="http://www.w3.org/2000/svg">
<path d="M14.0007 2.03864C17.1327 -0.77336 21.9727 -0.680027 24.99 2.34264C28.006 5.36664 28.11 10.1826 25.3047 13.324L13.998 24.6466L2.69402 13.324C-0.11131 10.1826 -0.00597614 5.35864 3.00869 2.34264C6.02869 -0.676027 10.8594 -0.77736 14.0007 2.03864ZM23.102 4.22664C21.102 2.22397 17.8754 2.14264 15.782 4.02264L14.002 5.61997L12.2207 4.02397C10.1207 2.14131 6.90069 2.22397 4.89536 4.22931C2.90869 6.21597 2.80869 9.39597 4.63936 11.4973L13.9994 20.872L23.3594 11.4986C25.1914 9.39597 25.0914 6.21997 23.102 4.22664Z" fill="#2D2A26"/>
</svg>
