<svg width="26" height="28" viewBox="0 0 26 28" fill="none" xmlns="http://www.w3.org/2000/svg">
<path d="M15.493 20.6972L9.89429 17.6439C9.16335 18.4253 8.21427 18.9688 7.17039 19.2037C6.1265 19.4387 5.03609 19.3542 4.04085 18.9613C3.04561 18.5683 2.19157 17.8851 1.58971 17.0005C0.987857 16.1158 0.666016 15.0705 0.666016 14.0005C0.666016 12.9305 0.987857 11.8853 1.58971 11.0006C2.19157 10.1159 3.04561 9.43273 4.04085 9.03981C5.03609 8.64689 6.1265 8.56241 7.17039 8.79735C8.21427 9.03229 9.16335 9.57578 9.89429 10.3572L15.4943 7.30387C15.1764 6.0453 15.3284 4.71398 15.9218 3.55947C16.5152 2.40495 17.5094 1.50651 18.7178 1.03253C19.9263 0.55856 21.2662 0.541604 22.4863 0.984844C23.7064 1.42808 24.7229 2.30109 25.3454 3.44021C25.9678 4.57934 26.1535 5.90638 25.8675 7.17259C25.5815 8.4388 24.8436 9.55725 23.7919 10.3183C22.7403 11.0793 21.4472 11.4307 20.1551 11.3065C18.8629 11.1824 17.6604 10.5912 16.773 9.64387L11.173 12.6972C11.3879 13.5523 11.3879 14.4474 11.173 15.3025L16.7716 18.3559C17.6591 17.4085 18.8616 16.8174 20.1538 16.6932C21.4459 16.5691 22.739 16.9204 23.7906 17.6815C24.8422 18.4425 25.5802 19.5609 25.8662 20.8271C26.1521 22.0933 25.9665 23.4204 25.344 24.5595C24.7216 25.6986 23.705 26.5716 22.4849 27.0149C21.2648 27.4581 19.925 27.4412 18.7165 26.9672C17.508 26.4932 16.5139 25.5948 15.9205 24.4403C15.327 23.2858 15.175 21.9544 15.493 20.6959V20.6972ZM5.99962 16.6665C6.70687 16.6665 7.38515 16.3856 7.88524 15.8855C8.38534 15.3854 8.66629 14.7071 8.66629 13.9999C8.66629 13.2926 8.38534 12.6143 7.88524 12.1142C7.38515 11.6142 6.70687 11.3332 5.99962 11.3332C5.29238 11.3332 4.6141 11.6142 4.11401 12.1142C3.61391 12.6143 3.33296 13.2926 3.33296 13.9999C3.33296 14.7071 3.61391 15.3854 4.11401 15.8855C4.6141 16.3856 5.29238 16.6665 5.99962 16.6665ZM20.6663 8.66653C21.3735 8.66653 22.0518 8.38558 22.5519 7.88548C23.052 7.38539 23.333 6.70711 23.333 5.99987C23.333 5.29262 23.052 4.61434 22.5519 4.11425C22.0518 3.61415 21.3735 3.3332 20.6663 3.3332C19.959 3.3332 19.2808 3.61415 18.7807 4.11425C18.2806 4.61434 17.9996 5.29262 17.9996 5.99987C17.9996 6.70711 18.2806 7.38539 18.7807 7.88548C19.2808 8.38558 19.959 8.66653 20.6663 8.66653ZM20.6663 24.6665C21.3735 24.6665 22.0518 24.3856 22.5519 23.8855C23.052 23.3854 23.333 22.7071 23.333 21.9999C23.333 21.2926 23.052 20.6143 22.5519 20.1142C22.0518 19.6142 21.3735 19.3332 20.6663 19.3332C19.959 19.3332 19.2808 19.6142 18.7807 20.1142C18.2806 20.6143 17.9996 21.2926 17.9996 21.9999C17.9996 22.7071 18.2806 23.3854 18.7807 23.8855C19.2808 24.3856 19.959 24.6665 20.6663 24.6665Z" fill="#2D2A26"/>
</svg>
