<svg width="14" height="13" viewBox="0 0 14 13" fill="none" xmlns="http://www.w3.org/2000/svg">
<path d="M12.334 1.83333H1.66732V11.1667L7.86198 4.97067C7.987 4.84569 8.15654 4.77548 8.33332 4.77548C8.51009 4.77548 8.67963 4.84569 8.80465 4.97067L12.334 8.50667V1.83333ZM0.333984 1.162C0.335204 0.986919 0.405251 0.819345 0.528993 0.695478C0.652735 0.571612 0.820238 0.501396 0.995318 0.5H13.006C13.3713 0.5 13.6673 0.796667 13.6673 1.162V11.838C13.6661 12.0131 13.5961 12.1807 13.4723 12.3045C13.3486 12.4284 13.1811 12.4986 13.006 12.5H0.995318C0.81986 12.4998 0.651649 12.43 0.527644 12.3059C0.403639 12.1817 0.333984 12.0135 0.333984 11.838V1.162ZM4.33398 5.83333C3.98036 5.83333 3.64122 5.69286 3.39118 5.44281C3.14113 5.19276 3.00065 4.85362 3.00065 4.5C3.00065 4.14638 3.14113 3.80724 3.39118 3.55719C3.64122 3.30714 3.98036 3.16667 4.33398 3.16667C4.68761 3.16667 5.02674 3.30714 5.27679 3.55719C5.52684 3.80724 5.66732 4.14638 5.66732 4.5C5.66732 4.85362 5.52684 5.19276 5.27679 5.44281C5.02674 5.69286 4.68761 5.83333 4.33398 5.83333Z" fill="#2D2A26"/>
</svg>
