<svg width="18" height="18" viewBox="0 0 18 18" fill="none" xmlns="http://www.w3.org/2000/svg">
<path d="M9.125 17.6367C10.3086 17.6367 11.4189 17.4111 12.4561 16.96C13.499 16.5088 14.4189 15.8848 15.2158 15.0879C16.0127 14.2969 16.6367 13.3799 17.0879 12.3369C17.5391 11.2939 17.7646 10.1807 17.7646 8.99707C17.7646 7.81348 17.5361 6.70312 17.0791 5.66602C16.6279 4.62305 16.0039 3.70313 15.207 2.90625C14.416 2.10937 13.499 1.48828 12.4561 1.04297C11.4131 0.591797 10.2998 0.366211 9.11621 0.366211C7.93848 0.366211 6.82812 0.591797 5.78516 1.04297C4.74219 1.48828 3.82227 2.10937 3.02539 2.90625C2.23438 3.70313 1.61328 4.62305 1.16211 5.66602C0.710938 6.70312 0.485352 7.81348 0.485352 8.99707C0.485352 10.1807 0.710938 11.2939 1.16211 12.3369C1.61328 13.3799 2.23438 14.2969 3.02539 15.0879C3.82227 15.8848 4.74219 16.5088 5.78516 16.96C6.82812 17.4111 7.94141 17.6367 9.125 17.6367ZM7.49902 12.416C7.2998 12.5391 7.10059 12.5596 6.90137 12.4775C6.70801 12.3896 6.61133 12.2402 6.61133 12.0293V5.97363C6.61133 5.75684 6.71094 5.60742 6.91016 5.52539C7.11523 5.44336 7.31152 5.45801 7.49902 5.56934L12.5088 8.52246C12.6904 8.63379 12.7812 8.79492 12.7812 9.00586C12.7871 9.2168 12.6963 9.37793 12.5088 9.48926L7.49902 12.416Z" fill="white"/>
</svg>
