<svg width="19" height="22" viewBox="0 0 19 22" fill="none" xmlns="http://www.w3.org/2000/svg">
<path d="M9.5 21.728L3.136 15.364C1.87734 14.1054 1.02019 12.5017 0.672928 10.7559C0.32567 9.01007 0.503907 7.20047 1.1851 5.55595C1.86629 3.91142 3.01984 2.50582 4.49988 1.51689C5.97992 0.52796 7.71998 0.00012207 9.5 0.00012207C11.28 0.00012207 13.0201 0.52796 14.5001 1.51689C15.9802 2.50582 17.1337 3.91142 17.8149 5.55595C18.4961 7.20047 18.6743 9.01007 18.3271 10.7559C17.9798 12.5017 17.1227 14.1054 15.864 15.364L9.5 21.728ZM14.45 13.95C15.4289 12.971 16.0955 11.7238 16.3656 10.3659C16.6356 9.00807 16.4969 7.60064 15.9671 6.3216C15.4373 5.04256 14.54 3.94935 13.3889 3.18021C12.2378 2.41107 10.8844 2.00055 9.5 2.00055C8.11557 2.00055 6.76222 2.41107 5.61109 3.18021C4.45996 3.94935 3.56275 5.04256 3.03292 6.3216C2.50308 7.60064 2.36442 9.00807 2.63445 10.3659C2.90449 11.7238 3.57111 12.971 4.55 13.95L9.5 18.9L14.45 13.95ZM9.5 11C8.96957 11 8.46086 10.7893 8.08579 10.4143C7.71072 10.0392 7.5 9.53048 7.5 9.00004C7.5 8.46961 7.71072 7.9609 8.08579 7.58583C8.46086 7.21076 8.96957 7.00004 9.5 7.00004C10.0304 7.00004 10.5391 7.21076 10.9142 7.58583C11.2893 7.9609 11.5 8.46961 11.5 9.00004C11.5 9.53048 11.2893 10.0392 10.9142 10.4143C10.5391 10.7893 10.0304 11 9.5 11Z" fill="#39A897"/>
</svg>
