<svg width="14" height="14" viewBox="0 0 14 14" fill="none" xmlns="http://www.w3.org/2000/svg">
<path d="M6.3335 0.333313C9.6455 0.333313 12.3335 3.02131 12.3335 6.33331C12.3335 9.64531 9.6455 12.3333 6.3335 12.3333C3.0215 12.3333 0.333496 9.64531 0.333496 6.33331C0.333496 3.02131 3.0215 0.333313 6.3335 0.333313ZM6.3335 11C8.9115 11 11.0002 8.91131 11.0002 6.33331C11.0002 3.75465 8.9115 1.66665 6.3335 1.66665C3.75483 1.66665 1.66683 3.75465 1.66683 6.33331C1.66683 8.91131 3.75483 11 6.3335 11ZM11.9902 11.0473L13.8762 12.9326L12.9328 13.876L11.0475 11.99L11.9902 11.0473Z" fill="#39A897"/>
</svg>
