<svg width="14" height="11" viewBox="0 0 14 11" fill="none" xmlns="http://www.w3.org/2000/svg">
<path d="M7.1135 7.33336C7.25123 6.94301 7.50666 6.60498 7.84456 6.36589C8.18247 6.12679 8.58622 5.99839 9.00016 5.99839C9.41411 5.99839 9.81786 6.12679 10.1558 6.36589C10.4937 6.60498 10.7491 6.94301 10.8868 7.33336H13.6668V8.66669H10.8868C10.7491 9.05705 10.4937 9.39507 10.1558 9.63417C9.81786 9.87326 9.41411 10.0017 9.00016 10.0017C8.58622 10.0017 8.18247 9.87326 7.84456 9.63417C7.50666 9.39507 7.25123 9.05705 7.1135 8.66669H0.333496V7.33336H7.1135ZM3.1135 1.66669C3.25123 1.27634 3.50666 0.938316 3.84456 0.699219C4.18247 0.460123 4.58622 0.331726 5.00016 0.331726C5.41411 0.331726 5.81786 0.460123 6.15576 0.699219C6.49367 0.938316 6.74909 1.27634 6.88683 1.66669H13.6668V3.00003H6.88683C6.74909 3.39038 6.49367 3.7284 6.15576 3.9675C5.81786 4.2066 5.41411 4.33499 5.00016 4.33499C4.58622 4.33499 4.18247 4.2066 3.84456 3.9675C3.50666 3.7284 3.25123 3.39038 3.1135 3.00003H0.333496V1.66669H3.1135ZM5.00016 3.00003C5.17697 3.00003 5.34654 2.92979 5.47157 2.80476C5.59659 2.67974 5.66683 2.51017 5.66683 2.33336C5.66683 2.15655 5.59659 1.98698 5.47157 1.86196C5.34654 1.73693 5.17697 1.66669 5.00016 1.66669C4.82335 1.66669 4.65378 1.73693 4.52876 1.86196C4.40373 1.98698 4.3335 2.15655 4.3335 2.33336C4.3335 2.51017 4.40373 2.67974 4.52876 2.80476C4.65378 2.92979 4.82335 3.00003 5.00016 3.00003ZM9.00016 8.66669C9.17697 8.66669 9.34654 8.59646 9.47157 8.47143C9.59659 8.34641 9.66683 8.17684 9.66683 8.00003C9.66683 7.82322 9.59659 7.65365 9.47157 7.52862C9.34654 7.4036 9.17697 7.33336 9.00016 7.33336C8.82335 7.33336 8.65378 7.4036 8.52876 7.52862C8.40374 7.65365 8.3335 7.82322 8.3335 8.00003C8.3335 8.17684 8.40374 8.34641 8.52876 8.47143C8.65378 8.59646 8.82335 8.66669 9.00016 8.66669Z" fill="white"/>
</svg>
