<svg width="15" height="14" viewBox="0 0 15 14" fill="none" xmlns="http://www.w3.org/2000/svg">
<path d="M6.8335 0.083313C10.1455 0.083313 12.8335 2.77131 12.8335 6.08331C12.8335 9.39531 10.1455 12.0833 6.8335 12.0833C3.5215 12.0833 0.833496 9.39531 0.833496 6.08331C0.833496 2.77131 3.5215 0.083313 6.8335 0.083313ZM6.8335 10.75C9.4115 10.75 11.5002 8.66131 11.5002 6.08331C11.5002 3.50465 9.4115 1.41665 6.8335 1.41665C4.25483 1.41665 2.16683 3.50465 2.16683 6.08331C2.16683 8.66131 4.25483 10.75 6.8335 10.75ZM12.4902 10.7973L14.3762 12.6826L13.4328 13.626L11.5475 11.74L12.4902 10.7973Z" fill="white"/>
</svg>
