<svg width="14" height="14" viewBox="0 0 14 14" fill="none" xmlns="http://www.w3.org/2000/svg">
<path d="M6.99992 13.6667C3.31792 13.6667 0.333252 10.682 0.333252 7.00004C0.333252 3.31804 3.31792 0.333374 6.99992 0.333374C10.6819 0.333374 13.6666 3.31804 13.6666 7.00004C13.6666 10.682 10.6819 13.6667 6.99992 13.6667ZM5.47325 12.1114C4.81553 10.7163 4.4345 9.20685 4.35125 7.66671H1.70792C1.83764 8.69264 2.26253 9.65882 2.93096 10.4478C3.5994 11.2369 4.48259 11.8148 5.47325 12.1114ZM5.68659 7.66671C5.78725 9.29271 6.25192 10.82 6.99992 12.168C7.76813 10.7844 8.21688 9.24636 8.31325 7.66671H5.68659ZM12.2919 7.66671H9.64859C9.56534 9.20685 9.18431 10.7163 8.52659 12.1114C9.51724 11.8148 10.4004 11.2369 11.0689 10.4478C11.7373 9.65882 12.1622 8.69264 12.2919 7.66671ZM1.70792 6.33337H4.35125C4.4345 4.79323 4.81553 3.28383 5.47325 1.88871C4.48259 2.18529 3.5994 2.76321 2.93096 3.55224C2.26253 4.34127 1.83764 5.30744 1.70792 6.33337ZM5.68725 6.33337H8.31259C8.21642 4.75377 7.7679 3.21573 6.99992 1.83204C6.23171 3.21567 5.78296 4.75372 5.68659 6.33337H5.68725ZM8.52659 1.88871C9.18431 3.28383 9.56534 4.79323 9.64859 6.33337H12.2919C12.1622 5.30744 11.7373 4.34127 11.0689 3.55224C10.4004 2.76321 9.51724 2.18529 8.52659 1.88871Z" fill="#2D2A26"/>
</svg>
