<svg width="16" height="16" viewBox="0 0 16 16" fill="none" xmlns="http://www.w3.org/2000/svg">
<g clip-path="url(#clip0_514_6400)">
<path d="M8.00016 14.6666C4.31816 14.6666 1.3335 11.6819 1.3335 7.99992C1.3335 4.31792 4.31816 1.33325 8.00016 1.33325C11.6822 1.33325 14.6668 4.31792 14.6668 7.99992C14.6668 11.6819 11.6822 14.6666 8.00016 14.6666ZM6.4735 13.1113C5.81577 11.7161 5.43474 10.2067 5.3515 8.66659H2.70816C2.83789 9.69252 3.26278 10.6587 3.93121 11.4477C4.59964 12.2368 5.48284 12.8147 6.4735 13.1113ZM6.68683 8.66659C6.7875 10.2926 7.25216 11.8199 8.00016 13.1679C8.76838 11.7843 9.21713 10.2462 9.3135 8.66659H6.68683ZM13.2922 8.66659H10.6488C10.5656 10.2067 10.1846 11.7161 9.52683 13.1113C10.5175 12.8147 11.4007 12.2368 12.0691 11.4477C12.7375 10.6587 13.1624 9.69252 13.2922 8.66659ZM2.70816 7.33325H5.3515C5.43474 5.79311 5.81577 4.28371 6.4735 2.88859C5.48284 3.18517 4.59964 3.76309 3.93121 4.55212C3.26278 5.34114 2.83789 6.30732 2.70816 7.33325ZM6.6875 7.33325H9.31283C9.21666 5.75365 8.76814 4.21561 8.00016 2.83192C7.23195 4.21555 6.7832 5.7536 6.68683 7.33325H6.6875ZM9.52683 2.88859C10.1846 4.28371 10.5656 5.79311 10.6488 7.33325H13.2922C13.1624 6.30732 12.7375 5.34114 12.0691 4.55212C11.4007 3.76309 10.5175 3.18517 9.52683 2.88859Z" fill="#2D2A26"/>
</g>
<defs>
<clipPath id="clip0_514_6400">
<rect width="16" height="16" fill="white"/>
</clipPath>
</defs>
</svg>
